<?xml version="1.0" encoding="UTF-8" standalone="no"?>
<!DOCTYPE svg PUBLIC "-//W3C//DTD SVG 1.1//EN" "http://www.w3.org/Graphics/SVG/1.1/DTD/svg11.dtd">
<svg width="100%" height="100%" viewBox="0 0 65 65" version="1.1" xmlns="http://www.w3.org/2000/svg" xmlns:xlink="http://www.w3.org/1999/xlink" xml:space="preserve" xmlns:serif="http://www.serif.com/" style="fill-rule:evenodd;clip-rule:evenodd;stroke-linejoin:round;stroke-miterlimit:2;">
    <g transform="matrix(1,0,0,1,-1,2)">
        <path d="M16.298,34.35C18.571,30.578 22.695,28.041 27.41,28.041C27.475,28.041 27.537,28.027 27.601,28.021C27.665,28.026 27.727,28.041 27.792,28.041L30.495,28.041C31.547,31.219 34.541,33.52 38.067,33.52C42.467,33.52 46.047,29.941 46.047,25.541C46.047,21.141 42.467,17.561 38.067,17.561C34.542,17.561 31.547,19.863 30.496,23.04L27.792,23.04C27.727,23.04 27.665,23.054 27.601,23.06C27.537,23.055 27.475,23.04 27.41,23.04C20.351,23.04 14.248,27.139 11.307,33.073C11.307,33.073 12.784,33.004 14.179,33.39C15.574,33.776 16.504,34.485 16.298,34.35ZM35.089,25.542C35.09,23.908 36.434,22.564 38.068,22.562C39.702,22.564 41.046,23.908 41.048,25.542C41.046,27.176 39.702,28.519 38.068,28.521C36.434,28.519 35.091,27.176 35.089,25.542Z" style="fill-rule:nonzero;"/>
    </g>
    <g>
        <g transform="matrix(1,0,0,1,0,2)">
            <path d="M15.991,45.517C18.264,49.289 22.388,51.826 27.103,51.826C27.168,51.826 27.23,51.84 27.294,51.846C27.358,51.841 37.42,51.826 37.485,51.826L44.188,51.826C45.24,48.648 48.234,46.347 51.76,46.347C56.16,46.347 59.74,49.926 59.74,54.326C59.74,58.726 56.16,62.306 51.76,62.306C48.235,62.306 45.24,60.004 44.189,56.827L37.485,56.827C37.42,56.827 27.358,56.813 27.294,56.807C27.23,56.812 27.168,56.827 27.103,56.827C20.044,56.827 13.941,52.728 11,46.794C11,46.794 12.477,46.863 13.872,46.477C15.268,46.091 16.197,45.382 15.991,45.517ZM48.782,54.325C48.783,55.959 50.127,57.303 51.761,57.305C53.395,57.303 54.739,55.959 54.741,54.325C54.739,52.691 53.395,51.348 51.761,51.346C50.127,51.348 48.784,52.691 48.782,54.325Z" style="fill-rule:nonzero;"/>
        </g>
        <g transform="matrix(1,0,0,1,0,2)">
            <path d="M4.288,36.979C5.34,33.801 8.334,31.5 11.86,31.5C16.26,31.5 19.84,35.079 19.84,39.479C19.84,43.879 16.26,47.459 11.86,47.459C8.335,47.459 5.34,45.157 4.289,41.98C4.096,41.38 4,40.546 4,39.479C4,38.412 4.096,37.578 4.288,36.979ZM8.882,39.478C8.883,41.112 10.227,42.456 11.861,42.458C13.495,42.456 14.839,41.112 14.841,39.478C14.839,37.844 13.495,36.501 11.861,36.499C10.227,36.501 8.884,37.844 8.882,39.478Z" style="fill-rule:nonzero;"/>
        </g>
    </g>
    <g transform="matrix(1.31531,0,0,1.27473,-16.3095,-9.11587)">
        <path d="M61,9.5C61,9.226 60.774,9 60.5,9L39.678,9C39.404,9 39.178,9.226 39.178,9.5L39.178,15.403C39.178,15.677 39.404,15.903 39.678,15.903L60.5,15.903C60.774,15.903 61,15.677 61,15.403L61,9.5Z"/>
    </g>
</svg>
