<?xml version="1.0" encoding="UTF-8" standalone="no"?>
<!DOCTYPE svg PUBLIC "-//W3C//DTD SVG 1.1//EN" "http://www.w3.org/Graphics/SVG/1.1/DTD/svg11.dtd">
<svg width="100%" height="100%" viewBox="0 0 24 24" version="1.1" xmlns="http://www.w3.org/2000/svg" xmlns:xlink="http://www.w3.org/1999/xlink" xml:space="preserve" xmlns:serif="http://www.serif.com/" style="fill-rule:evenodd;clip-rule:evenodd;stroke-linecap:round;stroke-linejoin:round;stroke-miterlimit:1.5;">
    <g transform="matrix(1,0,0,1.02173,0,-0.386293)">
        <path d="M6.583,6.043C6.799,6.043 6.359,6.042 6.583,6.043C8.184,6.053 12.266,6.043 13.868,6.043C14.69,6.043 13.05,6.095 13.868,6.043C14.831,5.983 12.902,6.044 13.868,6.043C14.483,6.043 18.241,6.067 18.896,6.235C19.238,6.322 19.541,6.475 19.829,6.678C20.086,6.859 20.466,7.07 20.625,7.356C20.692,7.477 20.747,7.648 20.76,7.785C20.792,8.115 20.844,8.444 20.762,8.769C20.495,9.835 19.5,10.489 18.654,11.065C18.533,11.147 18.402,11.214 18.269,11.274C17.308,11.712 16.225,11.693 15.195,11.693C14.506,11.693 13.795,11.762 13.115,11.669C12.223,11.547 11.329,11.29 10.431,11.228C9.552,11.168 8.624,11.209 7.754,11.305C6.963,11.392 6.198,11.461 5.435,11.699C5.198,11.773 4.833,11.853 4.642,12.02C4.515,12.13 4.391,12.244 4.272,12.363C4.115,12.52 4.124,13.029 4.095,13.231C4.041,13.612 3.923,14.003 3.972,14.394C4.016,14.748 4.427,15.345 4.542,15.582C4.933,16.386 5.257,16.916 6.084,17.301C7.442,17.934 8.978,17.755 10.419,17.755C12.983,17.755 15.542,17.723 18.103,17.723" style="fill:none;stroke:black;stroke-width:0.99px;"/>
    </g>
    <g transform="matrix(0.990093,0,0,1,0.703737,0.608899)">
        <path d="M17.671,2.109C19.35,2.109 21.039,2.09 22.721,2.09" style="fill:none;stroke:black;stroke-width:1px;"/>
    </g>
    <g transform="matrix(1,0,0,1,0.516312,0.369821)">
        <path d="M20.073,0.452C20.073,1.364 20.173,2.274 20.173,3.187L20.173,4.356" style="fill:none;stroke:black;stroke-width:1px;"/>
    </g>
    <path d="M6.334,5.802C6.334,5.09 6.674,4.393 6.695,3.677C6.702,3.413 6.547,2.906 6.658,2.68C6.871,2.247 7.009,1.629 7.009,1.142" style="fill:none;stroke:black;stroke-width:1px;"/>
    <path d="M7.079,2.49C7.572,2.324 8.042,2.182 8.554,2.096C8.727,2.067 8.892,2.005 9.064,1.974C9.129,1.962 9.185,1.937 9.252,1.93C9.28,1.928 9.359,1.921 9.333,1.909C8.967,1.741 8.591,1.564 8.216,1.404C8.031,1.325 7.689,1.09 7.465,1.09" style="fill:none;stroke:black;stroke-width:1px;"/>
    <path d="M7.417,1.638C7.417,1.84 7.469,1.944 7.606,1.804" style="fill:none;stroke:black;stroke-width:1px;"/>
    <path d="M18.229,17.509C18.229,17.18 18.169,16.966 18.128,16.561C18.082,16.11 18.163,15.639 18.106,15.19C18.072,14.916 18.048,14.652 18.048,14.373C18.048,14.354 18.037,14.136 18.048,14.132C18.135,14.104 18.345,14.167 18.44,14.178C18.839,14.223 19.031,14.259 19.562,14.355C19.883,14.412 20.182,14.397 20.503,14.419C20.682,14.431 20.871,14.496 21.048,14.496C21.082,14.496 20.985,14.523 20.957,14.542C20.901,14.579 20.846,14.611 20.787,14.644C20.608,14.743 20.396,14.766 20.199,14.812C19.734,14.921 19.259,14.983 18.802,15.123C18.764,15.135 18.439,15.249 18.426,15.221C18.383,15.127 18.426,14.928 18.426,14.823" style="fill:none;stroke:black;stroke-width:1px;"/>
</svg>
