<?xml version="1.0" encoding="UTF-8" standalone="no"?>
<!DOCTYPE svg PUBLIC "-//W3C//DTD SVG 1.1//EN" "http://www.w3.org/Graphics/SVG/1.1/DTD/svg11.dtd">
<svg width="100%" height="100%" viewBox="0 0 65 65" version="1.1" xmlns="http://www.w3.org/2000/svg" xmlns:xlink="http://www.w3.org/1999/xlink" xml:space="preserve" xmlns:serif="http://www.serif.com/" style="fill-rule:evenodd;clip-rule:evenodd;stroke-linejoin:round;stroke-miterlimit:2;">
    <g transform="matrix(1,0,0,1,-4.2031,2.41211)">
        <path d="M15.298,33.85C17.571,30.078 21.695,27.541 26.41,27.541C26.475,27.541 26.537,27.527 26.601,27.521C26.665,27.526 26.727,27.541 26.792,27.541L29.495,27.541C30.547,30.719 33.541,33.02 37.067,33.02C41.467,33.02 45.047,29.441 45.047,25.041C45.047,20.641 41.467,17.061 37.067,17.061C33.542,17.061 30.547,19.363 29.496,22.54L26.792,22.54C26.727,22.54 26.665,22.554 26.601,22.56C26.537,22.555 26.475,22.54 26.41,22.54C19.351,22.54 13.248,26.639 10.307,32.573C10.307,32.573 11.784,32.504 13.179,32.89C14.574,33.276 15.504,33.985 15.298,33.85ZM34.089,25.042C34.09,23.408 35.434,22.064 37.068,22.062C38.702,22.064 40.046,23.408 40.048,25.042C40.046,26.676 38.702,28.019 37.068,28.021C35.434,28.019 34.091,26.676 34.089,25.042Z" style="fill-rule:nonzero;"/>
    </g>
    <g>
        <g transform="matrix(1,0,0,1,-2,2)">
            <path d="M15.991,46.017C18.264,49.789 22.388,52.326 27.103,52.326C27.168,52.326 27.23,52.34 27.294,52.346C27.358,52.341 37.42,52.326 37.485,52.326L44.188,52.326C45.24,49.148 48.234,46.847 51.76,46.847C56.16,46.847 59.74,50.426 59.74,54.826C59.74,59.226 56.16,62.806 51.76,62.806C48.235,62.806 45.24,60.504 44.189,57.327L37.485,57.327C37.42,57.327 27.358,57.313 27.294,57.307C27.23,57.312 27.168,57.327 27.103,57.327C20.044,57.327 13.941,53.228 11,47.294C11,47.294 12.477,47.363 13.872,46.977C15.268,46.591 16.197,45.882 15.991,46.017ZM48.782,54.825C48.783,56.459 50.127,57.803 51.761,57.805C53.395,57.803 54.739,56.459 54.741,54.825C54.739,53.191 53.395,51.848 51.761,51.846C50.127,51.848 48.784,53.191 48.782,54.825Z" style="fill-rule:nonzero;"/>
        </g>
        <g transform="matrix(1,0,0,1,-2,2)">
            <path d="M4.288,37.479C5.34,34.301 8.334,32 11.86,32C16.26,32 19.84,35.579 19.84,39.979C19.84,44.379 16.26,47.959 11.86,47.959C8.335,47.959 5.34,45.657 4.289,42.48C4.096,41.88 4,41.046 4,39.979C4,38.912 4.096,38.078 4.288,37.479ZM8.882,39.978C8.883,41.612 10.227,42.956 11.861,42.958C13.495,42.956 14.839,41.612 14.841,39.978C14.839,38.344 13.495,37.001 11.861,36.999C10.227,37.001 8.884,38.344 8.882,39.978Z" style="fill-rule:nonzero;"/>
        </g>
    </g>
    <g transform="matrix(1.23391,0,0,1.23138,-13.9432,-5.96214)">
        <path d="M63.884,11.86C63.884,11.586 63.659,11.361 63.385,11.36L43.059,11.36C42.785,11.36 42.559,11.586 42.559,11.86L42.559,16.624C42.559,16.898 42.785,17.124 43.059,17.124L63.385,17.124C63.659,17.124 63.885,16.898 63.885,16.624L63.885,11.86L63.884,11.86Z"/>
    </g>
    <g transform="matrix(1.13557,0,0,1.13039,-8.62132,-4.04927)">
        <path d="M56.327,24.613C56.601,24.613 56.827,24.387 56.827,24.113L56.827,4.5C56.827,4.226 56.601,4 56.327,4L50.382,4C50.108,4 49.882,4.226 49.882,4.5L49.882,24.112C49.882,24.386 50.108,24.612 50.382,24.612L56.327,24.612L56.327,24.613Z"/>
    </g>
</svg>
